<svg width="177" height="51" viewBox="0 0 177 51" fill="none" xmlns="http://www.w3.org/2000/svg">
<path d="M71.4877 18.7392C74.1477 18.7161 76.194 19.1703 77.6266 20.1018C79.059 21.0162 79.7845 22.5373 79.803 24.6653C79.8216 26.8105 79.1143 28.3699 77.6811 29.3434C76.2478 30.2998 74.1925 30.7897 71.5153 30.8129L70.254 30.8239L70.3059 36.796L66.2901 36.8309L66.1374 19.2491C67.0111 19.0699 67.9368 18.9417 68.9144 18.8646C69.892 18.7874 70.7497 18.7457 71.4877 18.7392ZM71.7748 22.1607C71.4831 22.1632 71.1914 22.1743 70.8998 22.194C70.6254 22.2136 70.3853 22.2328 70.1795 22.2518L70.2242 27.4002L71.4856 27.3892C72.8757 27.3771 73.9209 27.1793 74.6212 26.7956C75.3215 26.412 75.6672 25.7053 75.6583 24.6756C75.654 24.1779 75.556 23.7669 75.3644 23.4424C75.1899 23.1179 74.9303 22.8627 74.5854 22.6769C74.2576 22.4738 73.8531 22.34 73.372 22.2755C72.8907 22.1939 72.3583 22.1556 71.7748 22.1607ZM81.0057 30.0354C80.9953 28.8341 81.1664 27.7857 81.519 26.8902C81.8886 25.9773 82.3712 25.218 82.9666 24.6121C83.562 24.0062 84.2445 23.5455 85.0141 23.2299C85.8009 22.9141 86.6061 22.7527 87.4298 22.7455C89.3519 22.7288 90.8758 23.3077 92.0016 24.4821C93.1272 25.6394 93.7 27.3593 93.7198 29.6417C93.7217 29.8648 93.7153 30.1138 93.7005 30.3885C93.6856 30.6461 93.6705 30.8779 93.6551 31.084L84.9543 31.1596C85.0469 31.9482 85.4214 32.5714 86.0775 33.0291C86.7337 33.4868 87.6109 33.7109 88.7092 33.7013C89.4129 33.6952 90.0988 33.6292 90.767 33.5032C91.4523 33.36 92.0086 33.1921 92.436 32.9996L92.9779 36.1099C92.7729 36.2147 92.4992 36.32 92.1569 36.426C91.8145 36.5319 91.4291 36.6211 91.0007 36.6935C90.5896 36.7828 90.144 36.8554 89.6639 36.911C89.1838 36.9667 88.7035 36.9966 88.223 37.0008C87.0046 37.0114 85.939 36.8404 85.0263 36.4879C84.1308 36.1353 83.38 35.6527 82.774 35.0401C82.185 34.4102 81.7409 33.6675 81.4417 32.8119C81.1597 31.9563 81.0143 31.0307 81.0057 30.0354ZM90.0026 28.4898C89.9827 28.1639 89.9198 27.8469 89.8142 27.5389C89.7257 27.2308 89.5774 26.9575 89.3694 26.719C89.1785 26.4804 88.928 26.2852 88.6177 26.1334C88.3247 25.9815 87.955 25.9075 87.5088 25.9113C87.0798 25.9151 86.7115 25.9955 86.4039 26.1526C86.0962 26.2926 85.8404 26.4836 85.6366 26.7257C85.4327 26.9677 85.2722 27.2523 85.1549 27.5794C85.0546 27.8892 84.9801 28.2074 84.9315 28.5339L90.0026 28.4898ZM99.4319 29.3347C99.4505 31.4798 100.326 32.5449 102.06 32.5298C102.454 32.5264 102.823 32.4717 103.165 32.3658C103.508 32.2598 103.798 32.1372 104.037 31.9978L103.984 25.8712C103.795 25.8385 103.572 25.8147 103.314 25.7998C103.057 25.7677 102.756 25.7531 102.413 25.7561C101.4 25.7649 100.648 26.1061 100.156 26.7797C99.6644 27.4534 99.4229 28.305 99.4319 29.3347ZM107.897 34.7703C107.917 36.9842 107.365 38.628 106.241 39.7018C105.135 40.7927 103.406 41.3483 101.055 41.3687C100.232 41.3759 99.4071 41.3058 98.5821 41.1585C97.7571 41.0284 96.9918 40.8463 96.2861 40.6121L96.9274 37.3885C97.5302 37.6236 98.1582 37.8069 98.8115 37.9385C99.482 38.07 100.238 38.1321 101.079 38.1248C102.177 38.1153 102.947 37.8683 103.389 37.3839C103.848 36.8994 104.075 36.2795 104.068 35.5244L104.064 35.0353C103.654 35.2277 103.226 35.3773 102.781 35.4841C102.352 35.5737 101.881 35.6207 101.366 35.6251C99.4952 35.6414 98.0575 35.1047 97.0526 34.015C96.0475 32.9082 95.5364 31.3594 95.5191 29.3687C95.5104 28.3733 95.6571 27.471 95.959 26.6617C96.2607 25.8353 96.7008 25.1278 97.2792 24.5393C97.8748 23.9506 98.6003 23.498 99.4556 23.1817C100.311 22.8481 101.279 22.6767 102.36 22.6673C102.824 22.6633 103.296 22.6849 103.777 22.7322C104.275 22.7622 104.764 22.8095 105.245 22.8739C105.726 22.9384 106.182 23.0203 106.612 23.1195C107.059 23.2014 107.454 23.2924 107.799 23.3924L107.897 34.7703ZM116.146 33.7204C116.523 33.7171 116.883 33.7054 117.227 33.6853C117.57 33.6651 117.844 33.637 118.05 33.6009L118.024 30.6921C117.87 30.6591 117.638 30.6268 117.328 30.5951C117.019 30.5635 116.736 30.5488 116.478 30.551C116.118 30.5541 115.775 30.5829 115.449 30.6372C115.141 30.6742 114.867 30.7538 114.628 30.876C114.389 30.9982 114.201 31.1629 114.066 31.37C113.93 31.5772 113.864 31.8352 113.866 32.1441C113.872 32.7447 114.073 33.1635 114.469 33.4003C114.883 33.6198 115.442 33.7265 116.146 33.7204ZM115.739 22.4996C116.872 22.4897 117.817 22.6103 118.574 22.8611C119.332 23.112 119.935 23.4757 120.386 23.9524C120.853 24.4289 121.184 25.0095 121.379 25.6943C121.574 26.3791 121.675 27.142 121.682 27.9829L121.752 35.9629C121.203 36.0878 120.441 36.2318 119.464 36.3947C118.487 36.5748 117.304 36.6709 115.914 36.683C115.039 36.6906 114.24 36.6203 113.518 36.4721C112.813 36.3238 112.202 36.0802 111.684 35.7415C111.166 35.3855 110.767 34.9256 110.488 34.3617C110.208 33.7977 110.065 33.1039 110.058 32.2802C110.051 31.4907 110.199 30.8201 110.503 30.2683C110.825 29.7163 111.25 29.2749 111.779 28.9442C112.308 28.6135 112.916 28.3766 113.601 28.2333C114.286 28.0729 114.997 27.9895 115.735 27.9831C116.233 27.9788 116.671 28.0007 117.049 28.0489C117.444 28.0798 117.762 28.1285 118.003 28.1951L118 27.8347C117.994 27.1826 117.792 26.6609 117.394 26.2696C116.996 25.8783 116.308 25.6869 115.329 25.6954C114.677 25.7011 114.034 25.7581 113.4 25.8666C112.766 25.9579 112.218 26.0914 111.756 26.2671L111.24 23.1823C111.462 23.1117 111.736 23.0407 112.062 22.9692C112.404 22.8804 112.773 22.8085 113.167 22.7536C113.561 22.6816 113.973 22.6265 114.401 22.5884C114.847 22.5331 115.293 22.5035 115.739 22.4996ZM128.571 33.5352C129.275 33.5291 129.772 33.4562 130.063 33.3163C130.353 33.1765 130.497 32.9092 130.493 32.5145C130.491 32.2056 130.3 31.9413 129.92 31.7214C129.541 31.4845 128.963 31.2235 128.189 30.9384C127.586 30.7205 127.035 30.4936 126.535 30.2577C126.052 30.0216 125.638 29.742 125.292 29.419C124.946 29.0787 124.676 28.6777 124.483 28.216C124.291 27.7543 124.191 27.1974 124.186 26.5452C124.175 25.2753 124.638 24.2673 125.575 23.5211C126.513 22.775 127.805 22.3948 129.453 22.3804C130.277 22.3733 131.067 22.4437 131.823 22.5916C132.579 22.7223 133.181 22.8715 133.629 23.0393L132.986 26.0311C132.538 25.8806 132.048 25.7475 131.515 25.632C130.999 25.5164 130.415 25.4614 129.763 25.467C128.562 25.4775 127.964 25.8173 127.97 26.4866C127.971 26.6411 127.998 26.7781 128.05 26.8978C128.103 27.0175 128.207 27.1367 128.362 27.2555C128.518 27.3572 128.725 27.4755 128.983 27.6105C129.259 27.7283 129.603 27.8626 130.017 28.0135C130.86 28.3151 131.558 28.6179 132.11 28.9221C132.662 29.209 133.093 29.5314 133.405 29.8891C133.734 30.2295 133.961 30.6137 134.085 31.0417C134.226 31.4695 134.299 31.9666 134.304 32.5329C134.315 33.8715 133.818 34.8884 132.811 35.5837C131.822 36.2788 130.409 36.6343 128.573 36.6502C127.372 36.6607 126.367 36.5664 125.558 36.3675C124.767 36.1684 124.216 36.0016 123.906 35.867L124.523 32.7466C125.177 32.9984 125.848 33.1985 126.536 33.347C127.224 33.4783 127.902 33.541 128.571 33.5352ZM148.242 35.6556C147.591 35.85 146.752 36.0289 145.723 36.1923C144.695 36.3729 143.615 36.4681 142.482 36.4779C141.332 36.4879 140.37 36.3418 139.595 36.0396C138.837 35.7373 138.233 35.3134 137.782 34.7682C137.331 34.2057 137.007 33.5392 136.812 32.7686C136.616 31.9979 136.515 31.1493 136.507 30.2226L136.441 22.6802L140.277 22.6468L140.338 29.7259C140.349 30.9615 140.52 31.8525 140.851 32.3988C141.181 32.9451 141.793 33.2144 142.685 33.2067C142.96 33.2043 143.252 33.1932 143.56 33.1733C143.869 33.1363 144.143 33.0996 144.383 33.0632L144.292 22.6119L148.128 22.5786L148.242 35.6556ZM155.194 33.304C155.898 33.2978 156.395 33.2249 156.686 33.085C156.976 32.9452 157.12 32.678 157.116 32.2832C157.114 31.9743 156.923 31.71 156.543 31.4902C156.163 31.2532 155.586 30.9922 154.811 30.7071C154.209 30.4893 153.658 30.2624 153.158 30.0264C152.675 29.7903 152.261 29.5108 151.915 29.1877C151.569 28.8474 151.299 28.4464 151.106 27.9847C150.914 27.523 150.814 26.9661 150.809 26.314C150.798 25.044 151.261 24.036 152.198 23.2898C153.136 22.5437 154.428 22.1635 156.076 22.1492C156.899 22.142 157.69 22.2124 158.446 22.3603C159.202 22.491 159.804 22.6402 160.252 22.808L159.609 25.7999C159.161 25.6493 158.671 25.5162 158.138 25.4007C157.622 25.2851 157.038 25.2301 156.386 25.2357C155.184 25.2462 154.587 25.586 154.592 26.2553C154.594 26.4098 154.621 26.5469 154.673 26.6665C154.726 26.7862 154.83 26.9055 154.985 27.0242C155.141 27.1259 155.348 27.2442 155.606 27.3793C155.882 27.497 156.226 27.6313 156.64 27.7822C157.483 28.0838 158.181 28.3867 158.733 28.6908C159.284 28.9778 159.716 29.3001 160.028 29.6578C160.357 29.9982 160.584 30.3824 160.708 30.8104C160.849 31.2382 160.922 31.7353 160.927 32.3016C160.938 33.6402 160.441 34.6571 159.434 35.3524C158.445 36.0475 157.032 36.403 155.196 36.419C153.994 36.4294 152.99 36.3351 152.181 36.1362C151.39 35.9371 150.839 35.7703 150.529 35.6357L151.146 32.5153C151.8 32.7671 152.471 32.9672 153.159 33.1157C153.847 33.247 154.525 33.3098 155.194 33.304Z" fill="black"/>
<path d="M36.9341 16.4182C35.0691 18.5941 34.1366 22.6349 34.4474 25.1216C31.3574 24.4999 28.8707 24.0855 27.9382 23.8783C26.3841 21.7024 26.0549 20.4591 26.0549 19.2157C27.9199 21.7024 31.0282 22.3241 32.2716 22.6349C28.5415 20.7699 23.879 17.0399 23.5682 13.3099C26.3657 16.4182 30.4066 18.2832 31.6499 18.5941C26.9874 15.4857 22.9465 12.6882 22.9465 5.84985C26.1792 11.0719 33.6185 15.0713 36.9341 16.4182Z" fill="url(#paint0_linear_68_7252)"/>
<path d="M54.03 11.1342C54.03 12.3775 52.7867 13.6208 50.3 14.8642C48.1242 12.3775 41.2858 12.6883 38.4883 15.7967C39.4208 15.175 41.2858 14.8642 42.8399 15.175C40.6641 15.4858 37.2449 18.5942 36.3124 21.7025C36.9341 20.4592 38.4883 19.5267 40.0424 19.2159C38.7991 20.1484 36.6232 22.9459 36.0016 25.4326C40.9933 26.3651 46.2775 27.9192 48.7642 30.0951C49.075 29.1626 48.435 27.2976 47.5025 25.4326C49.9891 24.1892 50.3 28.2301 51.2325 29.7842C52.165 31.3384 55.895 30.7167 55.5842 26.6759C55.3355 23.4432 54.03 18.2834 53.4083 16.1075C53.8228 15.4858 54.5274 13.6208 54.03 11.1342Z" fill="url(#paint1_linear_68_7252)"/>
<path d="M46.8809 43.1501C55.2734 32.5817 46.5701 29.4733 39.11 27.6083C31.65 25.7433 15.4865 24.5 12.9998 19.5266C14.2432 25.7433 21.0815 29.7842 28.5416 31.0275C21.3924 31.0275 17.3515 28.8517 16.1082 27.6083C20.7707 33.5142 28.2307 36.6225 32.2716 36.6225C26.3657 37.555 24.1899 36.0009 22.3249 34.7575C26.3657 41.9067 35.0692 40.9742 39.11 39.42C43.1508 37.8659 47.1918 39.42 46.8809 43.1501Z" fill="url(#paint2_linear_68_7252)"/>
<defs>
<linearGradient id="paint0_linear_68_7252" x1="25.9998" y1="4" x2="33.4998" y2="28" gradientUnits="userSpaceOnUse">
<stop stop-color="#3AF6DF"/>
<stop offset="1" stop-color="#08FBDD"/>
</linearGradient>
<linearGradient id="paint1_linear_68_7252" x1="42.4998" y1="8.00012" x2="55.9998" y2="34.0001" gradientUnits="userSpaceOnUse">
<stop stop-color="#477FE7"/>
<stop offset="1" stop-color="#1F5AC9"/>
</linearGradient>
<linearGradient id="paint2_linear_68_7252" x1="26.9998" y1="18" x2="46.9998" y2="47" gradientUnits="userSpaceOnUse">
<stop stop-color="#7547D9"/>
<stop offset="1" stop-color="#5120BD"/>
</linearGradient>
</defs>
</svg>
