<svg width="95" height="24" viewBox="0 0 95 24" fill="none" xmlns="http://www.w3.org/2000/svg">
<path d="M37.4509 8.33239C39.1406 8.31772 40.4404 8.60623 41.3504 9.19792C42.2603 9.77872 42.7211 10.745 42.7328 12.0967C42.7447 13.4593 42.2954 14.4499 41.385 15.0683C40.4745 15.6758 39.169 15.9869 37.4685 16.0017L36.6672 16.0087L36.7002 19.8022L34.1493 19.8244L34.0523 8.65627C34.6073 8.54243 35.1953 8.46101 35.8163 8.41201C36.4373 8.363 36.9821 8.33647 37.4509 8.33239ZM37.6333 10.5057C37.448 10.5073 37.2627 10.5144 37.0775 10.5269C36.9032 10.5393 36.7506 10.5516 36.6199 10.5636L36.6483 13.8339L37.4496 13.8269C38.3326 13.8193 38.9965 13.6936 39.4413 13.4499C39.8862 13.2062 40.1058 12.7573 40.1001 12.1032C40.0974 11.7871 40.0351 11.526 39.9134 11.3199C39.8026 11.1137 39.6377 10.9516 39.4186 10.8336C39.2103 10.7046 38.9534 10.6196 38.6478 10.5787C38.3421 10.5268 38.0039 10.5025 37.6333 10.5057ZM43.4968 15.5078C43.4902 14.7447 43.5989 14.0788 43.8229 13.5099C44.0577 12.9301 44.3642 12.4477 44.7424 12.0629C45.1206 11.678 45.5542 11.3854 46.043 11.1849C46.5427 10.9843 47.0542 10.8818 47.5775 10.8772C48.7984 10.8666 49.7664 11.2343 50.4815 11.9803C51.1965 12.7154 51.5603 13.8079 51.5729 15.2578C51.5742 15.3995 51.5701 15.5576 51.5607 15.7321C51.5512 15.8957 51.5416 16.043 51.5318 16.1739L46.005 16.2219C46.0639 16.7229 46.3017 17.1187 46.7185 17.4094C47.1353 17.7002 47.6925 17.8425 48.3902 17.8364C48.8371 17.8326 49.2728 17.7906 49.6973 17.7106C50.1326 17.6196 50.486 17.513 50.7575 17.3907L51.1017 19.3664C50.9714 19.433 50.7976 19.4999 50.5801 19.5672C50.3627 19.6345 50.1179 19.6911 49.8457 19.7371C49.5846 19.7939 49.3015 19.8399 48.9966 19.8753C48.6916 19.9106 48.3866 19.9296 48.0813 19.9323C47.3074 19.939 46.6305 19.8304 46.0508 19.6065C45.4819 19.3825 45.005 19.076 44.6201 18.6868C44.2459 18.2867 43.9638 17.8149 43.7738 17.2715C43.5946 16.728 43.5023 16.1401 43.4968 15.5078ZM49.2118 14.526C49.1991 14.319 49.1592 14.1177 49.092 13.922C49.0358 13.7263 48.9417 13.5527 48.8095 13.4012C48.6883 13.2496 48.5291 13.1256 48.3321 13.0292C48.1459 12.9327 47.9111 12.8857 47.6277 12.8882C47.3551 12.8905 47.1212 12.9416 46.9258 13.0414C46.7304 13.1304 46.5679 13.2517 46.4384 13.4054C46.3089 13.5592 46.2069 13.74 46.1324 13.9477C46.0687 14.1445 46.0214 14.3466 45.9905 14.554L49.2118 14.526ZM55.2013 15.0627C55.2131 16.4253 55.7696 17.1019 56.8706 17.0923C57.1213 17.0901 57.3554 17.0554 57.5728 16.9881C57.7903 16.9208 57.9749 16.8429 58.1268 16.7543L58.093 12.8627C57.9729 12.8419 57.831 12.8268 57.6674 12.8173C57.5037 12.7969 57.3128 12.7877 57.0948 12.7896C56.4517 12.7952 55.9739 13.0119 55.6614 13.4398C55.349 13.8677 55.1956 14.4087 55.2013 15.0627ZM60.5787 18.5155C60.5909 19.9217 60.2402 20.9659 59.5266 21.648C58.824 22.3409 57.726 22.6939 56.2325 22.7069C55.7093 22.7114 55.1856 22.6669 54.6615 22.5733C54.1375 22.4907 53.6513 22.375 53.2031 22.2262L53.6105 20.1786C53.9933 20.3279 54.3922 20.4444 54.8072 20.528C55.2331 20.6115 55.7132 20.6509 56.2473 20.6463C56.945 20.6402 57.4342 20.4833 57.715 20.1757C58.0067 19.8679 58.1504 19.4742 58.1462 18.9945L58.1435 18.6838C57.883 18.806 57.6112 18.901 57.3284 18.9689C57.0563 19.0258 56.7568 19.0556 56.4298 19.0585C55.2415 19.0688 54.3283 18.7279 53.69 18.0357C53.0515 17.3326 52.7268 16.3488 52.7159 15.0843C52.7104 14.452 52.8035 13.8789 52.9953 13.3648C53.1869 12.8399 53.4665 12.3905 53.8339 12.0166C54.2122 11.6427 54.673 11.3552 55.2164 11.1543C55.7596 10.9424 56.3747 10.8335 57.0614 10.8275C57.3558 10.825 57.6557 10.8387 57.9612 10.8688C58.2775 10.8878 58.5885 10.9178 58.8941 10.9588C59.1997 10.9997 59.489 11.0517 59.7621 11.1148C60.046 11.1668 60.2973 11.2246 60.5159 11.2881L60.5787 18.5155ZM65.818 17.8486C66.0578 17.8465 66.2867 17.8391 66.5046 17.8263C66.7226 17.8135 66.8968 17.7956 67.0275 17.7727L67.0114 15.9249C66.9131 15.904 66.7658 15.8835 66.5693 15.8634C66.3729 15.8433 66.193 15.8339 66.0295 15.8353C65.8005 15.8373 65.5827 15.8556 65.3758 15.8901C65.1798 15.9136 65.0058 15.9642 64.8539 16.0418C64.7019 16.1194 64.5829 16.224 64.4968 16.3556C64.4107 16.4872 64.3686 16.6511 64.3703 16.8473C64.3736 17.2288 64.5013 17.4948 64.7533 17.6452C65.0162 17.7847 65.3711 17.8525 65.818 17.8486ZM65.5599 10.721C66.2793 10.7147 66.8796 10.7913 67.3607 10.9506C67.8417 11.11 68.2253 11.3411 68.5114 11.6438C68.8084 11.9465 69.0187 12.3153 69.1424 12.7503C69.2661 13.1853 69.3303 13.6699 69.3349 14.2041L69.3789 19.273C69.0308 19.3524 68.5464 19.4438 67.9259 19.5473C67.3055 19.6617 66.5538 19.7228 65.6708 19.7304C65.1149 19.7353 64.6076 19.6906 64.1489 19.5965C63.7011 19.5022 63.3127 19.3475 62.9838 19.1324C62.6548 18.9063 62.4015 18.6141 62.2239 18.2559C62.0464 17.8977 61.9554 17.457 61.9508 16.9337C61.9465 16.4323 62.0409 16.0063 62.2341 15.6557C62.4381 15.3051 62.7083 15.0248 63.0444 14.8147C63.3805 14.6046 63.7662 14.4541 64.2015 14.3631C64.6367 14.2612 65.0887 14.2082 65.5574 14.2042C65.8735 14.2014 66.1517 14.2154 66.3918 14.246C66.6427 14.2656 66.8446 14.2966 66.9976 14.3388L66.9956 14.1099C66.992 13.6957 66.8638 13.3643 66.6109 13.1157C66.358 12.8672 65.9209 12.7456 65.2995 12.751C64.8853 12.7546 64.4768 12.7909 64.074 12.8598C63.6711 12.9178 63.323 13.0026 63.0296 13.1141L62.7019 11.1546C62.8432 11.1098 63.0173 11.0647 63.224 11.0193C63.4415 10.9629 63.6755 10.9173 63.926 10.8824C64.1763 10.8366 64.4377 10.8016 64.71 10.7774C64.9931 10.7423 65.2764 10.7235 65.5599 10.721ZM73.711 17.7309C74.158 17.7271 74.4737 17.6807 74.6583 17.5919C74.8429 17.5031 74.9341 17.3333 74.9319 17.0826C74.9302 16.8864 74.8088 16.7184 74.5677 16.5788C74.3266 16.4283 73.9599 16.2625 73.4678 16.0814C73.085 15.943 72.7349 15.7989 72.4174 15.649C72.1109 15.4991 71.8477 15.3215 71.6279 15.1162C71.408 14.9001 71.2368 14.6454 71.1143 14.3521C70.9918 14.0588 70.9288 13.7051 70.9252 13.2908C70.9182 12.4842 71.2124 11.8438 71.8079 11.3699C72.4034 10.8959 73.2244 10.6544 74.2709 10.6453C74.7941 10.6408 75.296 10.6855 75.7765 10.7794C76.2569 10.8625 76.6393 10.9573 76.9237 11.0638L76.515 12.9643C76.2307 12.8686 75.9193 12.7841 75.5807 12.7107C75.253 12.6373 74.8821 12.6023 74.4678 12.6059C73.7047 12.6126 73.3251 12.8285 73.3287 13.2536C73.3296 13.3517 73.3467 13.4388 73.3801 13.5148C73.4134 13.5908 73.4795 13.6666 73.5783 13.742C73.677 13.8066 73.8084 13.8817 73.9727 13.9675C74.1478 14.0423 74.3666 14.1276 74.629 14.2235C75.1649 14.4151 75.6081 14.6074 75.9586 14.8006C76.3091 14.9829 76.5834 15.1877 76.7816 15.4149C76.9906 15.6311 77.1345 15.8751 77.2131 16.147C77.3027 16.4188 77.3491 16.7345 77.3522 17.0943C77.3596 17.9445 77.0436 18.5905 76.4042 19.0321C75.7757 19.4737 74.8783 19.6995 73.7119 19.7096C72.9488 19.7163 72.3105 19.6564 71.797 19.53C71.2945 19.4036 70.9447 19.2976 70.7477 19.2121L71.1393 17.23C71.555 17.3899 71.9812 17.517 72.4181 17.6114C72.8549 17.6948 73.2859 17.7346 73.711 17.7309ZM86.2057 19.0778C85.7925 19.2013 85.2593 19.315 84.6061 19.4188C83.9529 19.5334 83.2667 19.5939 82.5472 19.6002C81.8168 19.6065 81.2055 19.5137 80.7133 19.3217C80.2319 19.1297 79.848 18.8605 79.5615 18.5141C79.275 18.1568 79.0696 17.7335 78.9455 17.2439C78.8213 16.7544 78.7566 16.2154 78.7515 15.6267L78.7099 10.8357L81.1463 10.8145L81.1854 15.3112C81.1922 16.0961 81.3007 16.662 81.5108 17.0091C81.721 17.3561 82.1095 17.5272 82.6763 17.5222C82.8507 17.5207 83.036 17.5137 83.2321 17.5011C83.4281 17.4776 83.6024 17.4542 83.7548 17.4311L83.6971 10.7924L86.1335 10.7712L86.2057 19.0778ZM90.6221 17.584C91.0691 17.5801 91.3848 17.5338 91.5694 17.445C91.7539 17.3562 91.8451 17.1864 91.843 16.9357C91.8413 16.7394 91.7199 16.5715 91.4788 16.4319C91.2377 16.2814 90.871 16.1156 90.3789 15.9345C89.9961 15.7961 89.646 15.652 89.3285 15.5021C89.022 15.3522 88.7588 15.1746 88.539 14.9693C88.319 14.7532 88.1479 14.4985 88.0254 14.2052C87.9029 13.9119 87.8399 13.5582 87.8363 13.1439C87.8293 12.3372 88.1235 11.6969 88.719 11.223C89.3145 10.749 90.1355 10.5075 91.182 10.4984C91.7052 10.4939 92.2071 10.5386 92.6876 10.6325C93.168 10.7155 93.5504 10.8103 93.8348 10.9169L93.4261 12.8174C93.1418 12.7217 92.8304 12.6372 92.4918 12.5638C92.1641 12.4904 91.7931 12.4554 91.3789 12.459C90.6158 12.4657 90.2361 12.6815 90.2398 13.1067C90.2407 13.2048 90.2578 13.2919 90.2912 13.3679C90.3245 13.4439 90.3906 13.5196 90.4894 13.5951C90.588 13.6597 90.7195 13.7348 90.8838 13.8206C91.0589 13.8954 91.2776 13.9807 91.5401 14.0766C92.076 14.2681 92.5192 14.4605 92.8697 14.6537C93.2202 14.836 93.4945 15.0407 93.6927 15.268C93.9017 15.4842 94.0455 15.7282 94.1242 16.0001C94.2138 16.2719 94.2601 16.5876 94.2633 16.9473C94.2707 17.7976 93.9547 18.4436 93.3153 18.8852C92.6868 19.3267 91.7894 19.5526 90.623 19.5627C89.8599 19.5693 89.2216 19.5095 88.7081 19.3831C88.2055 19.2567 87.8558 19.1507 87.6588 19.0652L88.0504 17.0831C88.4661 17.243 88.8923 17.3701 89.3292 17.4644C89.766 17.5479 90.197 17.5877 90.6221 17.584Z" fill="black"/>
<path d="M15.5011 6.73828C14.3164 8.12039 13.7241 10.6872 13.9215 12.2667C11.9588 11.8719 10.3792 11.6086 9.78686 11.477C8.79963 10.0948 8.59052 9.30507 8.59052 8.51528C9.77519 10.0948 11.7496 10.4897 12.5394 10.6872C10.1701 9.50251 7.2084 7.13317 7.01096 4.76383C8.78796 6.73828 11.3548 7.92295 12.1445 8.12039C9.18286 6.14594 6.61607 4.36894 6.61607 0.0251465C8.6695 3.34222 13.395 5.88268 15.5011 6.73828Z" fill="url(#paint0_linear_128_9090)"/>
<path d="M26.3605 3.38184C26.3605 4.17162 25.5707 4.9614 23.9912 5.75118C22.609 4.17162 18.2652 4.36906 16.4882 6.34351C17.0806 5.94862 18.2652 5.75118 19.2525 5.94862C17.8703 6.14607 15.6984 8.12052 15.1061 10.095C15.501 9.30519 16.4882 8.71285 17.4755 8.51541C16.6857 9.10774 15.3036 10.8847 14.9087 12.4643C18.0795 13.0566 21.436 14.0439 23.0156 15.426C23.213 14.8337 22.8065 13.649 22.2141 12.4643C23.7937 11.6745 23.9912 14.2413 24.5835 15.2285C25.1758 16.2158 27.5452 15.8209 27.3477 13.2541C27.1898 11.2007 26.3605 7.92307 25.9656 6.54096C26.2289 6.14607 26.6764 4.9614 26.3605 3.38184Z" fill="url(#paint1_linear_128_9090)"/>
<path d="M21.8193 23.7187C27.1503 17.0056 21.6219 15.0311 16.8832 13.8465C12.1445 12.6618 1.87733 11.872 0.297766 8.71289C1.08755 12.6618 5.43134 15.2286 10.17 16.0184C5.62878 16.0184 3.062 14.6362 2.27222 13.8465C5.23389 17.5979 9.97257 19.5724 12.5394 19.5724C8.7879 20.1647 7.40579 19.1775 6.22112 18.3877C8.7879 22.9289 14.3164 22.3366 16.8832 21.3494C19.4499 20.3622 22.0168 21.3494 21.8193 23.7187Z" fill="url(#paint2_linear_128_9090)"/>
<defs>
<linearGradient id="paint0_linear_128_9090" x1="8.55551" y1="-1.1499" x2="13.3196" y2="14.0951" gradientUnits="userSpaceOnUse">
<stop stop-color="#3AF6DF"/>
<stop offset="1" stop-color="#08FBDD"/>
</linearGradient>
<linearGradient id="paint1_linear_128_9090" x1="19.0364" y1="1.39107" x2="27.6117" y2="17.9065" gradientUnits="userSpaceOnUse">
<stop stop-color="#477FE7"/>
<stop offset="1" stop-color="#1F5AC9"/>
</linearGradient>
<linearGradient id="paint2_linear_128_9090" x1="9.19064" y1="7.74317" x2="21.8948" y2="26.1642" gradientUnits="userSpaceOnUse">
<stop stop-color="#7547D9"/>
<stop offset="1" stop-color="#5120BD"/>
</linearGradient>
</defs>
</svg>
